{
  "accessors": [
    {
      "bufferView": 2,
      "componentType": 5126,
      "count": 20470,
      "max": [
        23.22366714477539,
        31.0727481842041,
        57.26496887207031
      ],
      "min": [
        -23.223669052124023,
        -33.4746208190918,
        -11.175617218017578
      ],
      "type": "VEC3"
    },
    {
      "bufferView": 2,
      "byteOffset": 245640,
      "componentType": 5126,
      "count": 20470,
      "max": [
        0.9999741315841675,
        0.9999499320983887,
        0.9999017715454102
      ],
      "min": [
        -0.9999741315841675,
        -0.9999777674674988,
        -0.9999939203262329
      ],
      "type": "VEC3"
    },
    {
      "bufferView": 1,
      "componentType": 5126,
      "count": 20470,
      "max": [
        0.9846969842910767,
        0.9910920262336731
      ],
      "min": [
        0.008004000410437584,
        0.007304000202566385
      ],
      "type": "VEC2"
    },
    {
      "bufferView": 0,
      "componentType": 5125,
      "count": 115584,
      "type": "SCALAR"
    }
  ],
  "asset": {
    "extras": {
      "author": "VAA (https://sketchfab.com/VAA)",
      "license": "CC-BY-4.0 (http://creativecommons.org/licenses/by/4.0/)",
      "source": "https://sketchfab.com/3d-models/skull-proportions-key-landmarks-20c0f43e3778481c830978709d784681",
      "title": "Skull Proportions & Key Landmarks"
    },
    "generator": "Sketchfab-12.66.0",
    "version": "2.0"
  },
  "bufferViews": [
    {
      "buffer": 0,
      "byteLength": 462336,
      "name": "floatBufferViews",
      "target": 34963
    },
    {
      "buffer": 0,
      "byteLength": 163760,
      "byteOffset": 462336,
      "byteStride": 8,
      "name": "floatBufferViews",
      "target": 34962
    },
    {
      "buffer": 0,
      "byteLength": 491280,
      "byteOffset": 626096,
      "byteStride": 12,
      "name": "floatBufferViews",
      "target": 34962
    }
  ],
  "buffers": [
    {
      "byteLength": 1117376,
      "uri": "scene.bin"
    }
  ],
  "materials": [
    {
      "doubleSided": true,
      "name": "Skull",
      "pbrMetallicRoughness": {
        "baseColorFactor": [
          0.11834994654786898,
          0.13705121706662912,
          0.15304407204260592,
          1.0
        ],
        "metallicFactor": 0.2986742424242424,
        "roughnessFactor": 0.6
      }
    }
  ],
  "meshes": [
    {
      "name": "Object_0",
      "primitives": [
        {
          "attributes": {
            "NORMAL": 1,
            "POSITION": 0,
            "TEXCOORD_0": 2
          },
          "indices": 3,
          "material": 0,
          "mode": 4
        }
      ]
    }
  ],
  "nodes": [
    {
      "children": [
        1
      ],
      "matrix": [
        1.0,
        0.0,
        0.0,
        0.0,
        0.0,
        2.220446049250313e-16,
        -1.0,
        0.0,
        0.0,
        1.0,
        2.220446049250313e-16,
        0.0,
        0.0,
        0.0,
        0.0,
        1.0
      ],
      "name": "Sketchfab_model"
    },
    {
      "children": [
        2
      ],
      "name": "Human_Skull_High.obj.cleaner.materialmerger.gles"
    },
    {
      "mesh": 0,
      "name": "Object_2"
    }
  ],
  "scene": 0,
  "scenes": [
    {
      "name": "Sketchfab_Scene",
      "nodes": [
        0
      ]
    }
  ]
}
